HIERARCHY
ROOT Hips
{
  OFFSET 0 0 0
  CHANNELS 6 Xposition Yposition Zposition Zrotation Yrotation Xrotation
  JOINT LeftThigh
  {
    OFFSET 8.759831 0 -6.164326
    CHANNELS 3 Zrotation Yrotation Xrotation
    JOINT LeftLeg
    {
      OFFSET 0 0 -44.123596
      CHANNELS 3 Zrotation Yrotation Xrotation
      JOINT LeftFoot
      {
        OFFSET 0 0 -40.997191
        CHANNELS 3 Zrotation Yrotation Xrotation
        End Site
        {
          OFFSET 0 -13.883989 -5.217556
        }
      }
    }
  }
  JOINT RightThigh
  {
    OFFSET -8.759831 0 -6.164326
    CHANNELS 3 Zrotation Yrotation Xrotation
    JOINT RightLeg
    {
      OFFSET 0 0 -44.123596
      CHANNELS 3 Zrotation Yrotation Xrotation
      JOINT RightFoot
      {
        OFFSET 0 0 -40.997191
        CHANNELS 3 Zrotation Yrotation Xrotation
        End Site
        {
          OFFSET 0 -13.883989 -5.217556
        }
      }
    }
  }
  JOINT SpineLow
  {
    OFFSET 0 0 4.91573
    CHANNELS 3 Zrotation Yrotation Xrotation
    JOINT SpineMid
    {
      OFFSET 0 0 13.436657
      CHANNELS 3 Zrotation Yrotation Xrotation
      JOINT Chest
      {
        OFFSET 0 0 13.436657
        CHANNELS 3 Zrotation Yrotation Xrotation
        JOINT LeftShoulder
        {
          OFFSET 7.865169 1.474719 9.831461
          CHANNELS 3 Zrotation Yrotation Xrotation
          JOINT LeftArm
          {
            OFFSET 9.536517 0 4.424157
            CHANNELS 3 Zrotation Yrotation Xrotation
            JOINT LeftForearm
            {
              OFFSET 0 0 26.845787
              CHANNELS 3 Zrotation Yrotation Xrotation
              JOINT LeftHand
              {
                OFFSET 0 0 26.247051
                CHANNELS 3 Zrotation Yrotation Xrotation
                End Site
                {
                  OFFSET 0 0 8.75
                }
              }
            }
          }
        }
        JOINT RightShoulder
        {
          OFFSET -7.865169 1.474719 9.831461
          CHANNELS 3 Zrotation Yrotation Xrotation
          JOINT RightArm
          {
            OFFSET -9.536517 0 4.424157
            CHANNELS 3 Zrotation Yrotation Xrotation
            JOINT RightForearm
            {
              OFFSET 0 0 -26.845787
              CHANNELS 3 Zrotation Yrotation Xrotation
              JOINT RightHand
              {
                OFFSET 0 0 -26.247051
                CHANNELS 3 Zrotation Yrotation Xrotation
                End Site
                {
                  OFFSET 0 0 -8.75
                }
              }
            }
          }
        }
        JOINT Neck
        {
          OFFSET 0 0 15.730337
          CHANNELS 3 Zrotation Yrotation Xrotation
          JOINT Head
          {
            OFFSET 0 0 11.797753
            CHANNELS 3 Zrotation Yrotation Xrotation
            End Site
            {
              OFFSET 0 0 14.747191
            }
          }
        }
      }
    }
  }
}
MOTION
Frames: 8
Frame Time: 0.01
-117.783188 63.382103 15.978923 168.802078 32.701266 69.909785 -21.993754 -6.049223 13.557222 13.848945 2.186513 26.242503 -14.002421 13.504507 -27.633892 10.667967 13.54075 -10.075427 15.485295 3.355525 28.726582 26.053898 -18.522294 -12.111136 -8.446887 2.432787 0.10223 -23.149898 6.592046 -0.57105 -23.149898 6.592046 -0.57105 2.010439 10.651417 15.134916 119.409033 68.930538 -154.490354 -60.64587 21.251309 78.514068 38.000551 3.527117 6.125937 42.246451 -11.399759 19.607643 84.158309 60.926686 6.451732 7.885439 16.185576 -63.311978 95.420637 8.17265 -0.805785 33.338239 -6.302807 8.841459 25.075712 -4.260574 6.994735
-117.627396 63.348064 16.021349 169.385108 32.328485 69.709452 -21.73683 -6.490516 14.070614 12.735632 2.265083 26.368341 -13.807772 13.47556 -27.682849 9.595342 13.331071 -9.880399 15.865434 2.984805 28.862785 26.257114 -18.448779 -12.193574 -8.488807 2.44915 0.231996 -23.253243 6.680666 -0.230265 -23.253244 6.680667 -0.230265 2.069555 10.782953 14.842475 120.917932 68.335284 -152.825381 -60.356131 21.019291 78.373439 38.427971 3.714056 6.349972 42.163182 -11.349408 19.624639 83.831289 61.090525 5.922707 7.84082 16.234469 -63.31738 95.301526 8.211974 -0.4996 33.233123 -6.33522 8.714316 24.995646 -4.293336 6.899607
-117.367447 63.27713 16.096735 169.96513 32.002522 69.541125 -21.63229 -6.809076 14.580595 11.02639 2.37192 26.45694 -12.962395 13.60604 -27.804036 9.756256 12.490922 -9.978704 15.265782 3.194202 29.774552 26.338354 -18.341263 -12.258561 -8.48106 2.408755 0.427902 -23.211167 6.640128 0.314273 -23.211168 6.640128 0.314273 1.742933 10.977462 14.076223 121.642134 67.928369 -152.073598 -60.01015 20.892356 78.473508 38.90043 3.776831 6.793554 41.823774 -10.922265 19.327611 83.583903 61.241787 5.554941 7.772751 16.272979 -63.081963 95.26484 8.559658 -0.189078 32.994635 -6.134908 8.430219 24.812395 -4.161068 6.672587
-117.239304 63.25774 16.086903 170.301895 31.524075 69.161315 -21.305479 -6.924166 15.077165 9.938787 2.274636 26.443389 -12.87249 13.544348 -27.819541 8.956905 12.358549 -9.505791 15.543205 3.020757 29.858807 26.390806 -18.251662 -12.366449 -8.517799 2.407274 0.656184 -23.289485 6.715675 0.928099 -23.289486 6.715675 0.928099 1.621708 10.921333 13.054223 121.465953 67.783761 -152.228935 -59.806717 20.653427 78.667078 39.036763 3.741031 7.351275 41.839465 -10.417153 18.719337 83.115973 61.346234 5.101071 7.759129 16.397749 -63.194723 95.266283 8.559764 -0.002021 32.845016 -5.825561 7.990831 24.693553 -3.953743 6.324201
-117.051781 63.216007 16.00643 170.590624 31.002073 68.835951 -21.244878 -6.860198 15.536682 9.122511 1.984479 26.451861 -12.851118 13.546357 -27.933846 8.53307 11.988367 -9.105232 15.521858 3.089231 30.171043 26.319133 -18.099206 -12.468569 -8.510361 2.368169 0.832151 -23.250547 6.671561 1.41823 -23.250547 6.671561 1.41823 1.230455 11.012702 12.286458 120.570518 67.899506 -153.022807 -59.783994 21.175675 78.92957 36.334745 3.844789 8.153939 41.537416 -9.88382 18.327387 82.774566 61.387579 4.89296 7.719953 16.533687 -63.262011 95.268228 8.690273 0.094407 32.53189 -5.503526 7.714323 24.454091 -3.729911 6.096036
-116.946953 63.221889 15.929692 170.724953 30.672322 68.761494 -21.275806 -6.763233 15.723606 8.678777 1.795634 26.339538 -12.749059 13.517382 -27.962113 8.315041 11.719849 -8.96631 15.56907 3.249343 30.39815 26.205382 -17.991506 -12.584114 -8.497027 2.33911 0.907667 -23.205858 6.619329 1.633884 -23.205859 6.619329 1.633885 1.079334 10.919467 11.929334 119.204022 68.250639 -154.153271 -60.00323 20.873007 79.001895 36.376267 3.67096 8.516754 41.434481 -9.647543 18.018865 82.416382 61.318686 4.800269 7.688772 16.635407 -63.49524 95.236344 8.677625 0.122968 32.283816 -5.327519 7.538824 24.265365 -3.609666 5.952365
-116.754425 63.146175 15.856504 170.53579 30.145038 68.898362 -21.666626 -6.468041 15.404261 8.843425 1.480398 26.390737 -12.879679 13.517648 -28.057377 8.260749 11.695248 -9.197428 15.377793 3.422771 30.804432 25.946703 -17.796162 -12.6642 -8.512626 2.301934 0.878624 -23.250673 6.509284 1.566746 -23.250673 6.509284 1.566746 0.988943 10.937044 11.728223 117.742306 68.744658 -155.403652 -60.304315 20.718558 79.063753 36.575146 3.544096 8.612698 41.489798 -9.556795 17.713398 82.348017 61.130933 5.135276 7.65844 16.72093 -63.713579 95.076773 8.598288 0.057089 32.133525 -5.183733 7.480416 24.151299 -3.506266 5.899502
-116.574471 63.143833 15.92625 170.396473 30.002068 69.158501 -22.257048 -6.267549 15.018817 9.169786 1.476889 26.430876 -12.645051 13.516453 -28.104767 8.508732 11.712443 -9.537697 15.261356 3.51184 31.121908 25.697709 -17.671633 -12.801012 -8.488364 2.245384 0.814727 -23.189023 6.334347 1.416184 -23.189023 6.334347 1.416185 0.971476 10.963953 11.766753 116.146958 69.264014 -156.664258 -60.605023 20.265691 78.951035 36.540951 3.396949 8.66747 41.481717 -9.439372 17.66436 82.199442 60.997311 5.288822 7.594392 16.668842 -63.849003 94.997777 8.625595 -0.073046 31.949083 -5.058535 7.529622 24.012757 -3.411596 5.92826
